# xmcd
#
# Track frame offsets: 
#        150
#        13628
#        28029
#        39785
#        52960
#        65181
#        78415
#        91342
#        105024
#        120261
#        134291
#        148476
#        161223
#        173774
#        187207
#        197564
#        211787
#        224574
#        237025
#        251114
#        275601
#        281942
#        294946
#        310904
#        326613
#        340206
#
# Disc length: 4696 seconds
#
# Revision: 0
# Processed by: cddbd v1.5.2PL0 Copyright (c) Steve Scherf et al.
# Submitted via: ExactAudioCopyFreeDBPlugin 1.0
#
DISCID=8512561a
DTITLE=Various Artist - I've Got The Blues, But I'm Too Damn Mean To 
DTITLE=Cry [CD1)
DYEAR=2015
DGENRE=Blues
TTITLE0=Mississippi Sheiks - Jail Bird Love Song
TTITLE1=Ramblin' Thomas - No Job Blues
TTITLE2=Ozie McPherson - Down In The Bottom Where I Stay
TTITLE3=Wilmer Davis - Gut Struggle
TTITLE4=Roosevelt Sykes - Trouble And Whiskey
TTITLE5=Norfolk Jubilee Singers - Raise A R-U-K-U-S Tonight
TTITLE6=Birmingham Jubilee Singers - Raise A R-U-K-U-S Tonight
TTITLE7=Madlyn Davis - Landlady's Footsteps
TTITLE8=Clara Smith - Get On Board
TTITLE9=Charley Patton - I'm Goin' Home
TTITLE10=Mose 'Clear Rock' Platt and James 'Iron Head' Baker - Old Rattl
TTITLE10=er
TTITLE11=Ernest Williams, James 'Iron Head' Baker and Convict Group - Ai
TTITLE11=n't No More Cane On This Brazos
TTITLE12=Sara Martin - The Prisoner's Blues
TTITLE13=Rosa Henderson - Penitentiary Bound Blues
TTITLE14=Gene Campbell - Wash And Iron Woman Blues
TTITLE15=Dorothy Dodd - I've Got The Blues But I'm Just Too Mean To Cr
TTITLE15=y
TTITLE16=George Carter - Rising River Blues
TTITLE17=Bessie Brown - Song From A Cotton Field
TTITLE18=Lucille Bogan - They Ain't Walking No More
TTITLE19=Washington ('Lightnin'') - Long John
TTITLE20=Vera Hall - Another Man Done Gone
TTITLE21=Alice Moore - Black Evil Blues
TTITLE22=Julius Daniels - Richmond Blues - Take 1
TTITLE23=Bessie Tucker - Bessie's Moan
TTITLE24=Sylvester Weaver - Rock Pile Blues
TTITLE25=Curtis Jones - Highway 51 Blues
EXTD=
EXTT0=
EXTT1=
EXTT2=
EXTT3=
EXTT4=
EXTT5=
EXTT6=
EXTT7=
EXTT8=
EXTT9=
EXTT10=
EXTT11=
EXTT12=
EXTT13=
EXTT14=
EXTT15=
EXTT16=
EXTT17=
EXTT18=
EXTT19=
EXTT20=
EXTT21=
EXTT22=
EXTT23=
EXTT24=
EXTT25=
PLAYORDER=
